<?xml version="1.0" encoding="UTF-8"?>
<svg id="Capa_2" data-name="Capa 2" xmlns="http://www.w3.org/2000/svg" viewBox="0 0 488.7 126.74">
  <defs>
    <style>
      .cls-1 {
        fill: #f9fbf2;
      }

      .cls-2 {
        fill: #0b75f4;
      }
    </style>
  </defs>
  <g id="stickers">
    <g>
      <g>
        <path class="cls-1" d="M49.17,16c5.15,0,9.7,4.16,9.7,9.5s-4.55,9.41-9.7,9.41-9.6-4.06-9.6-9.41,4.55-9.5,9.6-9.5h0ZM56.49,38.57l-8.42,53.06c-1.98,12.57-10.2,18.02-21.88,18.02-1.54,0-3.06.04-4.57.04-1.89,0-3.76-.06-5.62-.34l2.38-14.16h6.04c3.76,0,5.15-2.97,5.74-6.14l8.02-50.49h18.31ZM49.17,0c-14.12,0-25.6,11.44-25.6,25.5,0,1.85.2,3.65.58,5.38-.86,1.57-1.47,3.32-1.77,5.18l-6.89,43.4c-6.52,1.19-11.75,6.35-12.88,13.09L.22,106.71c-.71,4.24.31,8.59,2.84,12.06,2.53,3.48,6.35,5.79,10.61,6.41,3.05.45,5.85.51,7.95.51.82,0,1.64-.01,2.47-.02.7,0,1.4-.02,2.1-.02,9.67,0,17.88-2.58,24.41-7.68,4.95-3.86,11.26-11.13,13.27-23.85l8.41-53.05c.24-1.54.26-3.1.06-4.62,1.61-3.32,2.52-7.04,2.52-10.96,0-14.06-11.53-25.5-25.7-25.5h0ZM56.49,54.57h0,0Z"/>
        <path class="cls-1" d="M118.07,38.57h0,0ZM118.07,38.57l-8.12,51.48h-18.31l1.78-11.09h-.99c-1.68,5.54-7.33,12.08-17.03,12.08-10.2,0-16.53-6.93-14.55-19.3l5.15-33.16h18.31l-4.45,28.61c-1.19,6.63,2.18,8.81,6.34,8.81s7.42-1.88,8.91-8.12l4.65-29.3h18.31ZM118.07,22.57h-18.32c-2.78,0-5.42.72-7.72,1.99-2.34-1.29-4.99-1.99-7.72-1.99h-18.31c-7.89,0-14.6,5.75-15.81,13.55l-5.14,33.14c-1.71,10.72.64,20.48,6.6,27.47,5.67,6.65,14.11,10.31,23.76,10.31,4.09,0,7.84-.65,11.24-1.79,1.6.52,3.28.8,5,.8h18.31c7.87,0,14.58-5.73,15.8-13.51l8.05-51.08c.17-.94.26-1.91.26-2.89,0-8.84-7.16-16-16-16h0ZM118.07,54.57h0,0Z"/>
        <path class="cls-1" d="M151.33,37.58c11.98,0,22.27,5.05,22.27,21.29,0,2.67-.2,6.93-1.58,10h-33.86c.5,7.52,3.56,9.11,8.22,9.11,6.43,0,7.72-2.97,8.81-5.64h16.04c-4.16,11.98-13.56,19.11-27.32,19.11-11.48,0-22.87-5.35-22.87-23.07s11.48-30.79,30.29-30.79h0ZM139.06,59.46h17.92c.2-3.66-.99-8.12-7.82-8.12-6.04,0-8.91,3.46-10.1,8.12h0ZM171.23,72.33h0,0ZM151.33,21.58c-26.82,0-46.29,19.68-46.29,46.79,0,16.35,7.02,25.61,12.91,30.49,6.76,5.61,15.74,8.57,25.96,8.57,19.9,0,35.66-10.96,42.26-29.35.47-1.22.8-2.52.96-3.86,1.67-4.23,2.48-9.27,2.48-15.36,0-15.7-6.84-24.53-12.59-29.17-6.66-5.38-15.3-8.11-25.69-8.11h0Z"/>
        <path class="cls-1" d="M204.3,37.58c8.32,0,11.48,4.06,12.08,6.83h.2l.79-5.84h18.31l-7.72,48.91c-3.17,20.29-20.99,23.26-31.18,23.26-8.22,0-24.55-1.68-21.38-18.71h16.53c-.3,4.16,3.56,5.05,7.33,5.05,6.24,0,9.31-2.97,10.4-9.6l.89-6.14h-.2c-1.48,2.57-5.15,6.34-13.27,6.34-9.31,0-18.51-5.05-18.51-20.1s10-30,25.74-30h0ZM203.7,73.22c6.53,0,10.69-5.64,10.69-12.08s-3.96-8.61-8.12-8.61c-6.34,0-10.2,5.94-10.2,11.88s3.07,8.81,7.62,8.81h0ZM235.68,38.57h0,0ZM204.3,21.58c-23.41,0-41.74,20.2-41.74,46,0,4.96.7,9.21,1.82,12.84-2.38,2.26-4.08,5.26-4.72,8.68-2.35,12.61,1.87,20.92,5.81,25.67,6.6,7.94,17.13,11.97,31.3,11.97,6.72,0,16.65-1.03,25.78-5.92,11.7-6.26,19.04-16.94,21.21-30.88l7.65-48.48c.17-.94.26-1.91.26-2.9,0-8.84-7.16-16-16-16h-18.32c-1.12,0-2.22.12-3.29.34-2.92-.85-6.18-1.33-9.78-1.33h0Z"/>
        <path class="cls-1" d="M297.45,38.57h0,0ZM297.45,38.57l-8.12,51.48h-18.31l1.78-11.09h-.99c-1.68,5.54-7.33,12.08-17.03,12.08-10.2,0-16.53-6.93-14.55-19.3l5.15-33.16h18.31l-4.45,28.61c-1.19,6.63,2.18,8.81,6.34,8.81s7.42-1.88,8.91-8.12l4.65-29.3h18.31ZM297.46,22.57h-18.32c-2.78,0-5.42.72-7.72,1.99-2.34-1.29-4.99-1.99-7.72-1.99h-18.31c-7.89,0-14.6,5.75-15.81,13.55l-5.14,33.14c-1.71,10.72.64,20.48,6.6,27.47,5.67,6.65,14.11,10.31,23.76,10.31,4.09,0,7.84-.65,11.24-1.79,1.6.52,3.28.8,5,.8h18.31c7.87,0,14.58-5.73,15.8-13.51l8.05-51.08c.17-.94.26-1.91.26-2.89,0-8.84-7.16-16-16-16h0ZM297.45,54.57h0,0Z"/>
        <path class="cls-1" d="M318.24,16c5.05,0,9.6,4.16,9.6,9.5s-4.55,9.41-9.6,9.41-9.7-4.06-9.7-9.41,4.55-9.5,9.7-9.5h0ZM325.47,38.57l-8.12,51.48h-18.31l8.12-51.48h18.31ZM318.24,0c-14.17,0-25.7,11.44-25.7,25.5,0,1.85.2,3.65.58,5.38-.87,1.58-1.48,3.33-1.77,5.2l-8.12,51.48c-.73,4.62.6,9.33,3.64,12.89,3.04,3.56,7.48,5.6,12.16,5.6h18.31c7.87,0,14.58-5.73,15.8-13.51l8.12-51.48c.24-1.53.26-3.08.06-4.59,1.61-3.32,2.51-7.05,2.51-10.97,0-14.06-11.49-25.5-25.6-25.5h0ZM325.47,54.57h0,0Z"/>
        <path class="cls-1" d="M361.01,25.01h0,0ZM361.01,25.01l-2.18,13.56h10.1l-2.18,13.96h-10.2l-2.87,17.62c-.49,3.07.3,6.04,4.26,6.04h5.25l-2.28,14.26c-3.27.3-6.34.3-9.6.3-11.68,0-18.22-5.44-16.14-18.12l3.17-20.1h-9.01l2.18-13.96h9.01l2.18-13.56h18.31ZM368.93,38.57h0,0ZM363.19,76.19h0,0ZM361.01,9.01h-18.32c-7.86,0-14.55,5.71-15.8,13.46l-.13.82c-5.7,1.77-10.11,6.65-11.07,12.82l-2.18,13.96c-.72,4.62.61,9.32,3.65,12.87.86,1.01,1.84,1.9,2.91,2.65l-.71,4.51c-2.15,13.22,2.11,21.55,6.07,26.21,4.04,4.76,11.82,10.44,25.87,10.44,3.47,0,7.06,0,11.05-.36,7.29-.66,13.2-6.18,14.35-13.41l2.21-13.85c.18-.95.27-1.93.27-2.93,0-3.9-1.39-7.47-3.71-10.25,3.7-2.41,6.36-6.31,7.08-10.94l2.12-13.56c.17-.93.26-1.89.26-2.87,0-5.89-3.18-11.04-7.92-13.82-.13-8.72-7.24-15.75-16-15.75h0Z"/>
        <path class="cls-1" d="M399.42,37.58c11.98,0,22.57,6.53,22.57,22.27,0,17.13-12.67,31.18-30.79,31.18-12.08,0-22.57-6.53-22.57-22.27,0-17.23,12.67-31.18,30.79-31.18h0ZM393.48,75.89c7.82,0,11.09-7.52,11.09-14.16s-2.97-9.01-7.42-9.01c-7.82,0-11.09,7.52-11.09,14.06s2.97,9.11,7.42,9.11h0ZM399.42,21.58c-13.03,0-25,4.98-33.71,14.04-8.43,8.76-13.07,20.53-13.07,33.15,0,15.24,6.66,24.24,12.25,29.1,6.89,6,15.99,9.17,26.33,9.17,13.02,0,25-5,33.73-14.09,8.42-8.77,13.06-20.52,13.06-33.1,0-15.24-6.69-24.24-12.3-29.12-6.9-5.99-15.98-9.16-26.27-9.16h0Z"/>
        <path class="cls-1" d="M452.29,37.58c15.05,0,22.08,7.52,20.1,18.61h-14.95c.4-3.96-1.98-5.74-6.04-5.74-2.77,0-5.74.99-5.74,3.27,0,2.67,2.97,3.17,7.62,4.16l6.14,1.29c7.13,1.58,12.47,4.85,12.47,13.27,0,12.08-11.58,18.61-26.33,18.61s-22.87-6.34-20.99-18.31h15.94c.2,3.07,1.68,5.45,7.03,5.45,4.16,0,5.94-1.49,5.94-3.17,0-.99-.4-2.38-4.46-3.27l-7.23-1.58c-9.9-2.38-12.97-8.22-12.97-14.65,0-11.48,10.3-17.92,23.46-17.92h0ZM452.29,21.58c-10.07,0-19.07,2.65-26.03,7.68-8.66,6.25-13.43,15.57-13.43,26.24,0,2.02.17,3.97.5,5.84-2.36,2.33-4.01,5.41-4.56,8.9-1.5,9.52.79,18.41,6.45,25.02,4.6,5.37,13.59,11.78,30.35,11.78,24.93,0,42.33-14.23,42.33-34.61,0-2.21-.24-5.41-1.28-8.9.72-1.39,1.24-2.91,1.53-4.52,1.72-9.64-.48-18.7-6.19-25.53-4.54-5.43-13.38-11.9-29.66-11.9h0Z"/>
      </g>
      <g>
        <path class="cls-2" d="M16,109.36l2.38-14.16h6.04c3.76,0,5.15-2.97,5.74-6.14l8.02-50.49h18.31l-8.42,53.06c-1.98,12.57-10.2,18.02-21.88,18.02-3.47,0-6.83.2-10.2-.3ZM39.56,25.5c0-5.35,4.55-9.5,9.6-9.5s9.7,4.16,9.7,9.5-4.55,9.41-9.7,9.41-9.6-4.06-9.6-9.41Z"/>
        <path class="cls-2" d="M86.19,75.99c3.96,0,7.42-1.88,8.91-8.12l4.65-29.3h18.31l-8.12,51.48h-18.31l1.78-11.09h-.99c-1.68,5.54-7.33,12.08-17.03,12.08-10.2,0-16.53-6.93-14.55-19.3l5.15-33.16h18.31l-4.45,28.61c-1.19,6.63,2.18,8.81,6.34,8.81Z"/>
        <path class="cls-2" d="M121.04,68.37c0-17.52,11.48-30.79,30.29-30.79,11.98,0,22.27,5.05,22.27,21.29,0,2.67-.2,6.93-1.58,10h-33.86c.5,7.52,3.56,9.11,8.22,9.11,6.43,0,7.72-2.97,8.81-5.64h16.04c-4.16,11.98-13.56,19.11-27.32,19.11-11.48,0-22.87-5.35-22.87-23.07ZM156.97,59.46c.2-3.66-.99-8.12-7.82-8.12-6.04,0-8.91,3.46-10.1,8.12h17.92Z"/>
        <path class="cls-2" d="M175.39,92.03h16.53c-.3,4.16,3.56,5.05,7.33,5.05,6.24,0,9.31-2.97,10.4-9.6l.89-6.14h-.2c-1.48,2.57-5.15,6.34-13.27,6.34-9.31,0-18.51-5.05-18.51-20.1s10-30,25.74-30c8.32,0,11.48,4.06,12.08,6.83h.2l.79-5.84h18.31l-7.72,48.91c-3.17,20.29-20.99,23.26-31.18,23.26-8.22,0-24.55-1.68-21.38-18.71ZM214.39,61.14c0-6.43-3.96-8.61-8.12-8.61-6.34,0-10.2,5.94-10.2,11.88s3.07,8.81,7.62,8.81c6.53,0,10.69-5.64,10.69-12.08Z"/>
        <path class="cls-2" d="M265.58,75.99c3.96,0,7.42-1.88,8.91-8.12l4.65-29.3h18.31l-8.12,51.48h-18.31l1.78-11.09h-.99c-1.68,5.54-7.33,12.08-17.03,12.08-10.2,0-16.53-6.93-14.55-19.3l5.15-33.16h18.31l-4.45,28.61c-1.19,6.63,2.18,8.81,6.34,8.81Z"/>
        <path class="cls-2" d="M307.15,38.57h18.31l-8.12,51.48h-18.31l8.12-51.48ZM308.54,25.5c0-5.35,4.55-9.5,9.7-9.5s9.6,4.16,9.6,9.5-4.55,9.41-9.6,9.41-9.7-4.06-9.7-9.41Z"/>
        <path class="cls-2" d="M335.17,72.63l3.17-20.1h-9.01l2.18-13.96h9.01l2.18-13.56h18.31l-2.18,13.56h10.1l-2.18,13.96h-10.2l-2.87,17.62c-.49,3.07.3,6.04,4.26,6.04h5.25l-2.28,14.26c-3.27.3-6.34.3-9.6.3-11.68,0-18.22-5.44-16.14-18.12Z"/>
        <path class="cls-2" d="M368.63,68.77c0-17.23,12.67-31.18,30.79-31.18,11.98,0,22.57,6.53,22.57,22.27,0,17.13-12.67,31.18-30.79,31.18-12.08,0-22.57-6.53-22.57-22.27ZM404.57,61.74c0-6.34-2.97-9.01-7.42-9.01-7.82,0-11.09,7.52-11.09,14.06s2.97,9.11,7.42,9.11c7.82,0,11.09-7.52,11.09-14.16Z"/>
        <path class="cls-2" d="M424.57,72.73h15.94c.2,3.07,1.68,5.45,7.03,5.45,4.16,0,5.94-1.49,5.94-3.17,0-.99-.4-2.38-4.46-3.27l-7.23-1.58c-9.9-2.38-12.97-8.22-12.97-14.65,0-11.48,10.3-17.92,23.46-17.92,15.05,0,22.08,7.52,20.1,18.61h-14.95c.4-3.96-1.98-5.74-6.04-5.74-2.77,0-5.74.99-5.74,3.27,0,2.67,2.97,3.17,7.62,4.16l6.14,1.29c7.13,1.58,12.47,4.85,12.47,13.27,0,12.08-11.58,18.61-26.33,18.61s-22.87-6.34-20.99-18.31Z"/>
      </g>
    </g>
  </g>
</svg>